<mxfile host="app.diagrams.net" agent="Mozilla/5.0 (Windows NT 10.0; Win64; x64) AppleWebKit/537.36 (KHTML, like Gecko) Chrome/135.0.0.0 Safari/537.36 OPR/120.0.0.0" version="28.0.9">
  <diagram name="หน้า-1" id="t4h-4iILze3Kf0BHnuXI">
    <mxGraphModel dx="6017" dy="1760" grid="1" gridSize="10" guides="1" tooltips="1" connect="1" arrows="1" fold="1" page="1" pageScale="1" pageWidth="850" pageHeight="1100" math="0" shadow="0">
      <root>
        <mxCell id="0" />
        <mxCell id="1" parent="0" />
        <mxCell id="_Ku0AoMt5sqPNa0hzZ_X-11" style="edgeStyle=orthogonalEdgeStyle;rounded=0;orthogonalLoop=1;jettySize=auto;html=1;" parent="1" source="_Ku0AoMt5sqPNa0hzZ_X-14" target="HzeqfnqRbjBhCnMXEQu9-7" edge="1">
          <mxGeometry relative="1" as="geometry" />
        </mxCell>
        <mxCell id="HzeqfnqRbjBhCnMXEQu9-1" value="START" style="ellipse;whiteSpace=wrap;html=1;fontSize=25;" parent="1" vertex="1">
          <mxGeometry x="307" y="20" width="235" height="80" as="geometry" />
        </mxCell>
        <mxCell id="HzeqfnqRbjBhCnMXEQu9-3" value="END" style="ellipse;whiteSpace=wrap;html=1;fontSize=25;" parent="1" vertex="1">
          <mxGeometry x="307.75" y="2430" width="235" height="80" as="geometry" />
        </mxCell>
        <mxCell id="_Ku0AoMt5sqPNa0hzZ_X-12" style="edgeStyle=orthogonalEdgeStyle;rounded=0;orthogonalLoop=1;jettySize=auto;html=1;entryX=0.5;entryY=0;entryDx=0;entryDy=0;" parent="1" source="HzeqfnqRbjBhCnMXEQu9-7" target="HzeqfnqRbjBhCnMXEQu9-8" edge="1">
          <mxGeometry relative="1" as="geometry" />
        </mxCell>
        <mxCell id="HzeqfnqRbjBhCnMXEQu9-7" value="Plr_Starter_Point&amp;nbsp;← 100&lt;div&gt;Score&amp;nbsp;← 100&lt;/div&gt;&lt;div&gt;random_Num&amp;nbsp;← rand() % 100 + 1&lt;/div&gt;&lt;div&gt;Scope_Min&amp;nbsp;← 1&lt;/div&gt;&lt;div&gt;scope_Max&amp;nbsp;← 100&lt;/div&gt;&lt;div&gt;input&amp;nbsp;← 0&lt;/div&gt;&lt;div&gt;input&amp;nbsp;← 0&lt;span style=&quot;white-space: pre;&quot;&gt;&#x9;&lt;/span&gt;&lt;/div&gt;" style="rounded=0;whiteSpace=wrap;html=1;" parent="1" vertex="1">
          <mxGeometry x="290" y="240" width="270" height="120" as="geometry" />
        </mxCell>
        <mxCell id="Y-2nz7yPnQ106VopUXDH-8" style="edgeStyle=orthogonalEdgeStyle;rounded=0;orthogonalLoop=1;jettySize=auto;html=1;entryX=0.5;entryY=0;entryDx=0;entryDy=0;" edge="1" parent="1" source="HzeqfnqRbjBhCnMXEQu9-8" target="HzeqfnqRbjBhCnMXEQu9-9">
          <mxGeometry relative="1" as="geometry" />
        </mxCell>
        <mxCell id="HzeqfnqRbjBhCnMXEQu9-8" value="Show&amp;nbsp;&lt;span style=&quot;font-family: Consolas, &amp;quot;Courier New&amp;quot;, monospace; font-size: 14px; white-space: pre;&quot;&gt;&quot;Do you want to play game (1=play,-1=exit) : &quot;&lt;/span&gt;" style="shape=parallelogram;perimeter=parallelogramPerimeter;whiteSpace=wrap;html=1;fixedSize=1;fontColor=default;labelBackgroundColor=none;" parent="1" vertex="1">
          <mxGeometry x="203" y="410" width="443" height="60" as="geometry" />
        </mxCell>
        <mxCell id="Y-2nz7yPnQ106VopUXDH-9" style="edgeStyle=orthogonalEdgeStyle;rounded=0;orthogonalLoop=1;jettySize=auto;html=1;entryX=0.5;entryY=0;entryDx=0;entryDy=0;" edge="1" parent="1" source="HzeqfnqRbjBhCnMXEQu9-9" target="HzeqfnqRbjBhCnMXEQu9-10">
          <mxGeometry relative="1" as="geometry" />
        </mxCell>
        <mxCell id="HzeqfnqRbjBhCnMXEQu9-9" value="Input &quot;&lt;span style=&quot;font-family: Consolas, &amp;quot;Courier New&amp;quot;, monospace; font-size: 14px; white-space: pre;&quot;&gt;PlayOrExit&lt;/span&gt;&lt;span style=&quot;&quot;&gt;&quot;&lt;/span&gt;" style="shape=parallelogram;perimeter=parallelogramPerimeter;whiteSpace=wrap;html=1;fixedSize=1;fontColor=default;labelBackgroundColor=none;" parent="1" vertex="1">
          <mxGeometry x="203" y="500" width="443" height="60" as="geometry" />
        </mxCell>
        <mxCell id="Y-2nz7yPnQ106VopUXDH-10" style="edgeStyle=orthogonalEdgeStyle;rounded=0;orthogonalLoop=1;jettySize=auto;html=1;entryX=0.5;entryY=0;entryDx=0;entryDy=0;" edge="1" parent="1" source="HzeqfnqRbjBhCnMXEQu9-10" target="HzeqfnqRbjBhCnMXEQu9-12">
          <mxGeometry relative="1" as="geometry" />
        </mxCell>
        <mxCell id="Y-2nz7yPnQ106VopUXDH-59" value="True" style="edgeLabel;html=1;align=center;verticalAlign=middle;resizable=0;points=[];fontSize=20;" vertex="1" connectable="0" parent="Y-2nz7yPnQ106VopUXDH-10">
          <mxGeometry x="-0.4753" y="1" relative="1" as="geometry">
            <mxPoint y="1" as="offset" />
          </mxGeometry>
        </mxCell>
        <mxCell id="Y-2nz7yPnQ106VopUXDH-60" style="edgeStyle=orthogonalEdgeStyle;rounded=0;orthogonalLoop=1;jettySize=auto;html=1;entryX=0.5;entryY=0;entryDx=0;entryDy=0;" edge="1" parent="1" source="HzeqfnqRbjBhCnMXEQu9-10" target="HzeqfnqRbjBhCnMXEQu9-11">
          <mxGeometry relative="1" as="geometry" />
        </mxCell>
        <mxCell id="Y-2nz7yPnQ106VopUXDH-61" value="False" style="edgeLabel;html=1;align=center;verticalAlign=middle;resizable=0;points=[];fontSize=20;" vertex="1" connectable="0" parent="Y-2nz7yPnQ106VopUXDH-60">
          <mxGeometry x="0.4489" y="2" relative="1" as="geometry">
            <mxPoint as="offset" />
          </mxGeometry>
        </mxCell>
        <mxCell id="HzeqfnqRbjBhCnMXEQu9-10" value="&lt;div style=&quot;font-family: Consolas, &amp;quot;Courier New&amp;quot;, monospace; font-size: 14px; line-height: 19px; white-space: pre;&quot;&gt;&lt;span style=&quot;&quot;&gt;PlayOrExit&lt;/span&gt; &lt;span style=&quot;&quot;&gt;=&lt;/span&gt; &lt;span style=&quot;&quot;&gt;1&lt;/span&gt;&lt;/div&gt;" style="rhombus;whiteSpace=wrap;html=1;labelBackgroundColor=none;fontColor=default;" parent="1" vertex="1">
          <mxGeometry x="301.99" y="590" width="245" height="160" as="geometry" />
        </mxCell>
        <mxCell id="Y-2nz7yPnQ106VopUXDH-1" style="edgeStyle=orthogonalEdgeStyle;rounded=0;orthogonalLoop=1;jettySize=auto;html=1;entryX=0.5;entryY=0;entryDx=0;entryDy=0;" edge="1" parent="1" source="HzeqfnqRbjBhCnMXEQu9-11" target="_Ku0AoMt5sqPNa0hzZ_X-33">
          <mxGeometry relative="1" as="geometry" />
        </mxCell>
        <mxCell id="Y-2nz7yPnQ106VopUXDH-63" value="True" style="edgeLabel;html=1;align=center;verticalAlign=middle;resizable=0;points=[];fontSize=20;" vertex="1" connectable="0" parent="Y-2nz7yPnQ106VopUXDH-1">
          <mxGeometry x="-0.2714" y="2" relative="1" as="geometry">
            <mxPoint as="offset" />
          </mxGeometry>
        </mxCell>
        <mxCell id="Y-2nz7yPnQ106VopUXDH-62" style="edgeStyle=orthogonalEdgeStyle;rounded=0;orthogonalLoop=1;jettySize=auto;html=1;entryX=0.5;entryY=0;entryDx=0;entryDy=0;" edge="1" parent="1" source="HzeqfnqRbjBhCnMXEQu9-11" target="_Ku0AoMt5sqPNa0hzZ_X-34">
          <mxGeometry relative="1" as="geometry">
            <mxPoint x="-790" y="920" as="targetPoint" />
          </mxGeometry>
        </mxCell>
        <mxCell id="Y-2nz7yPnQ106VopUXDH-64" value="False" style="edgeLabel;html=1;align=center;verticalAlign=middle;resizable=0;points=[];fontSize=20;" vertex="1" connectable="0" parent="Y-2nz7yPnQ106VopUXDH-62">
          <mxGeometry x="0.1657" y="-2" relative="1" as="geometry">
            <mxPoint as="offset" />
          </mxGeometry>
        </mxCell>
        <mxCell id="HzeqfnqRbjBhCnMXEQu9-11" value="&lt;div style=&quot;font-family: Consolas, &amp;quot;Courier New&amp;quot;, monospace; font-size: 14px; line-height: 19px; white-space: pre;&quot;&gt;&lt;div style=&quot;line-height: 19px;&quot;&gt;&lt;span style=&quot;&quot;&gt;PlayOrExit&lt;/span&gt; &lt;span style=&quot;&quot;&gt;=&lt;/span&gt; &lt;span style=&quot;&quot;&gt;-&lt;/span&gt;&lt;span style=&quot;&quot;&gt;1&lt;/span&gt;&lt;/div&gt;&lt;/div&gt;" style="rhombus;whiteSpace=wrap;html=1;labelBackgroundColor=none;fontColor=default;" parent="1" vertex="1">
          <mxGeometry x="-370" y="700" width="245" height="160" as="geometry" />
        </mxCell>
        <mxCell id="Y-2nz7yPnQ106VopUXDH-11" style="edgeStyle=orthogonalEdgeStyle;rounded=0;orthogonalLoop=1;jettySize=auto;html=1;" edge="1" parent="1" source="HzeqfnqRbjBhCnMXEQu9-12" target="_Ku0AoMt5sqPNa0hzZ_X-10">
          <mxGeometry relative="1" as="geometry" />
        </mxCell>
        <mxCell id="HzeqfnqRbjBhCnMXEQu9-12" value="Show &quot;(Score = 100)&quot; + score" style="shape=parallelogram;perimeter=parallelogramPerimeter;whiteSpace=wrap;html=1;fixedSize=1;fontColor=default;labelBackgroundColor=none;" parent="1" vertex="1">
          <mxGeometry x="269.49" y="810" width="310" height="60" as="geometry" />
        </mxCell>
        <mxCell id="Y-2nz7yPnQ106VopUXDH-57" style="edgeStyle=orthogonalEdgeStyle;rounded=0;orthogonalLoop=1;jettySize=auto;html=1;entryX=0;entryY=0.5;entryDx=0;entryDy=0;fillColor=#1ba1e2;strokeColor=#006EAF;" edge="1" parent="1" source="_Ku0AoMt5sqPNa0hzZ_X-1" target="_Ku0AoMt5sqPNa0hzZ_X-10">
          <mxGeometry relative="1" as="geometry">
            <mxPoint x="90" y="630" as="targetPoint" />
            <Array as="points">
              <mxPoint x="70" y="2195" />
              <mxPoint x="70" y="940" />
            </Array>
          </mxGeometry>
        </mxCell>
        <mxCell id="_Ku0AoMt5sqPNa0hzZ_X-1" value="&lt;div style=&quot;font-family: Consolas, &amp;quot;Courier New&amp;quot;, monospace; font-size: 14px; line-height: 19px; white-space: pre;&quot;&gt;while true do&lt;/div&gt;" style="rhombus;whiteSpace=wrap;html=1;labelBackgroundColor=none;fontColor=default;" parent="1" vertex="1">
          <mxGeometry x="313.25" y="2130" width="222.5" height="130" as="geometry" />
        </mxCell>
        <mxCell id="Y-2nz7yPnQ106VopUXDH-13" style="edgeStyle=orthogonalEdgeStyle;rounded=0;orthogonalLoop=1;jettySize=auto;html=1;" edge="1" parent="1" source="_Ku0AoMt5sqPNa0hzZ_X-2" target="_Ku0AoMt5sqPNa0hzZ_X-3">
          <mxGeometry relative="1" as="geometry" />
        </mxCell>
        <mxCell id="_Ku0AoMt5sqPNa0hzZ_X-2" value="Check&amp;nbsp;&amp;nbsp;←&amp;nbsp;Input &quot;input&quot;" style="shape=parallelogram;perimeter=parallelogramPerimeter;whiteSpace=wrap;html=1;fixedSize=1;fontColor=default;labelBackgroundColor=none;" parent="1" vertex="1">
          <mxGeometry x="203.75" y="1030" width="443" height="60" as="geometry" />
        </mxCell>
        <mxCell id="Y-2nz7yPnQ106VopUXDH-14" style="edgeStyle=orthogonalEdgeStyle;rounded=0;orthogonalLoop=1;jettySize=auto;html=1;" edge="1" parent="1" source="_Ku0AoMt5sqPNa0hzZ_X-3" target="_Ku0AoMt5sqPNa0hzZ_X-4">
          <mxGeometry relative="1" as="geometry" />
        </mxCell>
        <mxCell id="Y-2nz7yPnQ106VopUXDH-15" value="True" style="edgeLabel;html=1;align=center;verticalAlign=middle;resizable=0;points=[];fontSize=20;" vertex="1" connectable="0" parent="Y-2nz7yPnQ106VopUXDH-14">
          <mxGeometry x="-0.3171" y="-5" relative="1" as="geometry">
            <mxPoint as="offset" />
          </mxGeometry>
        </mxCell>
        <mxCell id="Y-2nz7yPnQ106VopUXDH-16" style="edgeStyle=orthogonalEdgeStyle;rounded=0;orthogonalLoop=1;jettySize=auto;html=1;entryX=0.5;entryY=0;entryDx=0;entryDy=0;" edge="1" parent="1" source="_Ku0AoMt5sqPNa0hzZ_X-3" target="_Ku0AoMt5sqPNa0hzZ_X-5">
          <mxGeometry relative="1" as="geometry" />
        </mxCell>
        <mxCell id="Y-2nz7yPnQ106VopUXDH-17" value="False" style="edgeLabel;html=1;align=center;verticalAlign=middle;resizable=0;points=[];fontSize=20;" vertex="1" connectable="0" parent="Y-2nz7yPnQ106VopUXDH-16">
          <mxGeometry x="-0.2444" y="-2" relative="1" as="geometry">
            <mxPoint as="offset" />
          </mxGeometry>
        </mxCell>
        <mxCell id="_Ku0AoMt5sqPNa0hzZ_X-3" value="&lt;div style=&quot;font-family: Consolas, &amp;quot;Courier New&amp;quot;, monospace; font-size: 14px; line-height: 19px; white-space: pre;&quot;&gt;&lt;div style=&quot;line-height: 19px;&quot;&gt;&lt;span style=&quot;&quot;&gt;input&lt;/span&gt; &lt;span style=&quot;&quot;&gt;&amp;gt;&lt;/span&gt; &lt;span style=&quot;&quot;&gt;100 or input &lt;/span&gt;&lt;span style=&quot;font-family: Arial, sans-serif; font-size: 18px; text-align: start; white-space: normal;&quot;&gt;≤ 0&lt;/span&gt;&lt;/div&gt;&lt;/div&gt;" style="rhombus;whiteSpace=wrap;html=1;labelBackgroundColor=none;fontColor=default;" parent="1" vertex="1">
          <mxGeometry x="302" y="1160" width="245" height="160" as="geometry" />
        </mxCell>
        <mxCell id="Y-2nz7yPnQ106VopUXDH-47" style="edgeStyle=orthogonalEdgeStyle;rounded=0;orthogonalLoop=1;jettySize=auto;html=1;entryX=0.5;entryY=0;entryDx=0;entryDy=0;" edge="1" parent="1" source="_Ku0AoMt5sqPNa0hzZ_X-4" target="Y-2nz7yPnQ106VopUXDH-46">
          <mxGeometry relative="1" as="geometry" />
        </mxCell>
        <mxCell id="_Ku0AoMt5sqPNa0hzZ_X-4" value="&lt;div style=&quot;font-family: Consolas, &amp;quot;Courier New&amp;quot;, monospace; font-size: 14px; line-height: 19px; white-space: pre;&quot;&gt;&lt;span style=&quot;&quot;&gt;Show &quot;ใส่เลข 1-100 อย่างเดียวครับพี่ :(&lt;/span&gt;&lt;span style=&quot;&quot;&gt;&quot;&lt;/span&gt;&lt;/div&gt;" style="shape=parallelogram;perimeter=parallelogramPerimeter;whiteSpace=wrap;html=1;fixedSize=1;fontColor=default;labelBackgroundColor=none;" parent="1" vertex="1">
          <mxGeometry x="250" y="1410" width="350.5" height="60" as="geometry" />
        </mxCell>
        <mxCell id="Y-2nz7yPnQ106VopUXDH-18" style="edgeStyle=orthogonalEdgeStyle;rounded=0;orthogonalLoop=1;jettySize=auto;html=1;entryX=0.5;entryY=0;entryDx=0;entryDy=0;" edge="1" parent="1" source="_Ku0AoMt5sqPNa0hzZ_X-5" target="_Ku0AoMt5sqPNa0hzZ_X-7">
          <mxGeometry relative="1" as="geometry" />
        </mxCell>
        <mxCell id="Y-2nz7yPnQ106VopUXDH-19" value="True" style="edgeLabel;html=1;align=center;verticalAlign=middle;resizable=0;points=[];fontSize=20;" vertex="1" connectable="0" parent="Y-2nz7yPnQ106VopUXDH-18">
          <mxGeometry x="0.1342" y="2" relative="1" as="geometry">
            <mxPoint x="-2" y="-11" as="offset" />
          </mxGeometry>
        </mxCell>
        <mxCell id="Y-2nz7yPnQ106VopUXDH-20" style="edgeStyle=orthogonalEdgeStyle;rounded=0;orthogonalLoop=1;jettySize=auto;html=1;entryX=0.5;entryY=0;entryDx=0;entryDy=0;" edge="1" parent="1" source="_Ku0AoMt5sqPNa0hzZ_X-5" target="_Ku0AoMt5sqPNa0hzZ_X-8">
          <mxGeometry relative="1" as="geometry" />
        </mxCell>
        <mxCell id="Y-2nz7yPnQ106VopUXDH-22" value="False" style="edgeLabel;html=1;align=center;verticalAlign=middle;resizable=0;points=[];fontSize=20;" vertex="1" connectable="0" parent="Y-2nz7yPnQ106VopUXDH-20">
          <mxGeometry x="-0.1305" y="3" relative="1" as="geometry">
            <mxPoint as="offset" />
          </mxGeometry>
        </mxCell>
        <mxCell id="_Ku0AoMt5sqPNa0hzZ_X-5" value="&lt;div style=&quot;font-family: Consolas, &amp;quot;Courier New&amp;quot;, monospace; font-size: 14px; line-height: 19px; white-space: pre;&quot;&gt;&lt;div style=&quot;line-height: 19px;&quot;&gt;&lt;div style=&quot;line-height: 19px;&quot;&gt;check &lt;span style=&quot;&quot;&gt;=&lt;/span&gt; &lt;span style=&quot;&quot;&gt;0&lt;/span&gt;&lt;/div&gt;&lt;/div&gt;&lt;/div&gt;" style="rhombus;whiteSpace=wrap;html=1;labelBackgroundColor=none;fontColor=default;" parent="1" vertex="1">
          <mxGeometry x="932.5" y="1280" width="245" height="160" as="geometry" />
        </mxCell>
        <mxCell id="Y-2nz7yPnQ106VopUXDH-44" style="edgeStyle=orthogonalEdgeStyle;rounded=0;orthogonalLoop=1;jettySize=auto;html=1;entryX=0.5;entryY=0;entryDx=0;entryDy=0;" edge="1" parent="1" source="_Ku0AoMt5sqPNa0hzZ_X-7" target="Y-2nz7yPnQ106VopUXDH-43">
          <mxGeometry relative="1" as="geometry" />
        </mxCell>
        <mxCell id="_Ku0AoMt5sqPNa0hzZ_X-7" value="&lt;div style=&quot;font-family: Consolas, &amp;quot;Courier New&amp;quot;, monospace; font-size: 14px; line-height: 19px; white-space: pre;&quot;&gt;&lt;span style=&quot;&quot;&gt;Show &lt;/span&gt;&lt;span style=&quot;&quot;&gt;&quot;Input ตัวเลข Only!!!!&lt;/span&gt;&lt;span style=&quot;&quot;&gt;&quot;&lt;/span&gt;&lt;/div&gt;" style="shape=parallelogram;perimeter=parallelogramPerimeter;whiteSpace=wrap;html=1;fixedSize=1;fontColor=default;labelBackgroundColor=none;" parent="1" vertex="1">
          <mxGeometry x="900" y="1495" width="310" height="60" as="geometry" />
        </mxCell>
        <mxCell id="Y-2nz7yPnQ106VopUXDH-21" style="edgeStyle=orthogonalEdgeStyle;rounded=0;orthogonalLoop=1;jettySize=auto;html=1;entryX=0.5;entryY=0;entryDx=0;entryDy=0;" edge="1" parent="1" source="_Ku0AoMt5sqPNa0hzZ_X-8" target="_Ku0AoMt5sqPNa0hzZ_X-9">
          <mxGeometry relative="1" as="geometry" />
        </mxCell>
        <mxCell id="Y-2nz7yPnQ106VopUXDH-30" value="True" style="edgeLabel;html=1;align=center;verticalAlign=middle;resizable=0;points=[];fontSize=20;" vertex="1" connectable="0" parent="Y-2nz7yPnQ106VopUXDH-21">
          <mxGeometry x="-0.1524" y="2" relative="1" as="geometry">
            <mxPoint as="offset" />
          </mxGeometry>
        </mxCell>
        <mxCell id="Y-2nz7yPnQ106VopUXDH-23" style="edgeStyle=orthogonalEdgeStyle;rounded=0;orthogonalLoop=1;jettySize=auto;html=1;entryX=0.5;entryY=0;entryDx=0;entryDy=0;" edge="1" parent="1" source="_Ku0AoMt5sqPNa0hzZ_X-8" target="_Ku0AoMt5sqPNa0hzZ_X-21">
          <mxGeometry relative="1" as="geometry" />
        </mxCell>
        <mxCell id="Y-2nz7yPnQ106VopUXDH-27" value="False" style="edgeLabel;html=1;align=center;verticalAlign=middle;resizable=0;points=[];fontSize=20;" vertex="1" connectable="0" parent="Y-2nz7yPnQ106VopUXDH-23">
          <mxGeometry x="-0.0157" y="3" relative="1" as="geometry">
            <mxPoint x="-1" as="offset" />
          </mxGeometry>
        </mxCell>
        <mxCell id="_Ku0AoMt5sqPNa0hzZ_X-8" value="&lt;div style=&quot;font-family: Consolas, &amp;quot;Courier New&amp;quot;, monospace; font-size: 14px; line-height: 19px; white-space: pre;&quot;&gt;&lt;div style=&quot;line-height: 19px;&quot;&gt;&lt;div style=&quot;line-height: 19px;&quot;&gt;&lt;span style=&quot;&quot;&gt;input&lt;/span&gt; &lt;span style=&quot;&quot;&gt;==&lt;/span&gt; &lt;span style=&quot;&quot;&gt;random_Num&lt;/span&gt;&lt;/div&gt;&lt;/div&gt;&lt;/div&gt;" style="rhombus;whiteSpace=wrap;html=1;labelBackgroundColor=none;fontColor=default;" parent="1" vertex="1">
          <mxGeometry x="1425.25" y="1410" width="245" height="160" as="geometry" />
        </mxCell>
        <mxCell id="_Ku0AoMt5sqPNa0hzZ_X-18" style="edgeStyle=orthogonalEdgeStyle;rounded=0;orthogonalLoop=1;jettySize=auto;html=1;entryX=0.5;entryY=0;entryDx=0;entryDy=0;" parent="1" source="_Ku0AoMt5sqPNa0hzZ_X-9" target="_Ku0AoMt5sqPNa0hzZ_X-13" edge="1">
          <mxGeometry relative="1" as="geometry">
            <mxPoint x="1547.75" y="1690" as="targetPoint" />
          </mxGeometry>
        </mxCell>
        <mxCell id="_Ku0AoMt5sqPNa0hzZ_X-9" value="&lt;div style=&quot;font-family: Consolas, &amp;quot;Courier New&amp;quot;, monospace; font-size: 14px; line-height: 19px; white-space: pre;&quot;&gt;&lt;span style=&quot;&quot;&gt;Show &lt;/span&gt;&lt;span style=&quot;&quot;&gt;&quot;That is correct! The winning number is&lt;/span&gt;&lt;span style=&quot;&quot;&gt;&quot; + &lt;/span&gt;&lt;span style=&quot;&quot;&gt;random_Num&lt;/span&gt;&lt;/div&gt;" style="shape=parallelogram;perimeter=parallelogramPerimeter;whiteSpace=wrap;html=1;fixedSize=1;fontColor=default;labelBackgroundColor=none;" parent="1" vertex="1">
          <mxGeometry x="1292.5" y="1630" width="510.5" height="60" as="geometry" />
        </mxCell>
        <mxCell id="Y-2nz7yPnQ106VopUXDH-12" style="edgeStyle=orthogonalEdgeStyle;rounded=0;orthogonalLoop=1;jettySize=auto;html=1;entryX=0.5;entryY=0;entryDx=0;entryDy=0;" edge="1" parent="1" source="_Ku0AoMt5sqPNa0hzZ_X-10" target="_Ku0AoMt5sqPNa0hzZ_X-2">
          <mxGeometry relative="1" as="geometry" />
        </mxCell>
        <mxCell id="_Ku0AoMt5sqPNa0hzZ_X-10" value="Show&amp;nbsp;&lt;span style=&quot;font-family: Consolas, &amp;quot;Courier New&amp;quot;, monospace; font-size: 14px; white-space: pre;&quot;&gt;&quot;Guess the winning number (Min-Max ) : &quot; + &lt;/span&gt;&lt;span style=&quot;font-family: Consolas, &amp;quot;Courier New&amp;quot;, monospace; font-size: 14px; white-space: pre;&quot;&gt;scope_Min&lt;/span&gt;&lt;span style=&quot;font-family: Consolas, &amp;quot;Courier New&amp;quot;, monospace; font-size: 14px; white-space: pre;&quot;&gt;, &lt;/span&gt;&lt;span style=&quot;font-family: Consolas, &amp;quot;Courier New&amp;quot;, monospace; font-size: 14px; white-space: pre;&quot;&gt;scope_Max&lt;/span&gt;" style="shape=parallelogram;perimeter=parallelogramPerimeter;whiteSpace=wrap;html=1;fixedSize=1;fontColor=default;labelBackgroundColor=none;" parent="1" vertex="1">
          <mxGeometry x="145" y="910" width="560.5" height="60" as="geometry" />
        </mxCell>
        <mxCell id="Y-2nz7yPnQ106VopUXDH-50" style="edgeStyle=orthogonalEdgeStyle;rounded=0;orthogonalLoop=1;jettySize=auto;html=1;fillColor=#60a917;strokeColor=#2D7600;entryX=1;entryY=0.5;entryDx=0;entryDy=0;" edge="1" parent="1" source="_Ku0AoMt5sqPNa0hzZ_X-13" target="_Ku0AoMt5sqPNa0hzZ_X-14">
          <mxGeometry relative="1" as="geometry">
            <mxPoint x="1840" y="1180" as="targetPoint" />
            <Array as="points">
              <mxPoint x="1850" y="1760" />
              <mxPoint x="1850" y="155" />
            </Array>
          </mxGeometry>
        </mxCell>
        <mxCell id="_Ku0AoMt5sqPNa0hzZ_X-13" value="Break Loop" style="rounded=0;whiteSpace=wrap;html=1;" parent="1" vertex="1">
          <mxGeometry x="1477.62" y="1730" width="140.25" height="60" as="geometry" />
        </mxCell>
        <mxCell id="_Ku0AoMt5sqPNa0hzZ_X-15" value="" style="edgeStyle=orthogonalEdgeStyle;rounded=0;orthogonalLoop=1;jettySize=auto;html=1;" parent="1" source="HzeqfnqRbjBhCnMXEQu9-1" target="_Ku0AoMt5sqPNa0hzZ_X-14" edge="1">
          <mxGeometry relative="1" as="geometry">
            <mxPoint x="425" y="100" as="sourcePoint" />
            <mxPoint x="425" y="240" as="targetPoint" />
          </mxGeometry>
        </mxCell>
        <mxCell id="_Ku0AoMt5sqPNa0hzZ_X-14" value="" style="ellipse;whiteSpace=wrap;html=1;aspect=fixed;" parent="1" vertex="1">
          <mxGeometry x="409.5" y="140" width="30" height="30" as="geometry" />
        </mxCell>
        <mxCell id="Y-2nz7yPnQ106VopUXDH-24" style="edgeStyle=orthogonalEdgeStyle;rounded=0;orthogonalLoop=1;jettySize=auto;html=1;entryX=0.5;entryY=0;entryDx=0;entryDy=0;" edge="1" parent="1" source="_Ku0AoMt5sqPNa0hzZ_X-21" target="_Ku0AoMt5sqPNa0hzZ_X-26">
          <mxGeometry relative="1" as="geometry" />
        </mxCell>
        <mxCell id="Y-2nz7yPnQ106VopUXDH-29" value="True" style="edgeLabel;html=1;align=center;verticalAlign=middle;resizable=0;points=[];fontSize=20;" vertex="1" connectable="0" parent="Y-2nz7yPnQ106VopUXDH-24">
          <mxGeometry x="-0.2685" relative="1" as="geometry">
            <mxPoint as="offset" />
          </mxGeometry>
        </mxCell>
        <mxCell id="Y-2nz7yPnQ106VopUXDH-31" style="edgeStyle=orthogonalEdgeStyle;rounded=0;orthogonalLoop=1;jettySize=auto;html=1;entryX=0.5;entryY=0;entryDx=0;entryDy=0;" edge="1" parent="1" source="_Ku0AoMt5sqPNa0hzZ_X-21" target="_Ku0AoMt5sqPNa0hzZ_X-22">
          <mxGeometry relative="1" as="geometry" />
        </mxCell>
        <mxCell id="Y-2nz7yPnQ106VopUXDH-36" value="False" style="edgeLabel;html=1;align=center;verticalAlign=middle;resizable=0;points=[];fontSize=20;" vertex="1" connectable="0" parent="Y-2nz7yPnQ106VopUXDH-31">
          <mxGeometry x="-0.0609" relative="1" as="geometry">
            <mxPoint as="offset" />
          </mxGeometry>
        </mxCell>
        <mxCell id="_Ku0AoMt5sqPNa0hzZ_X-21" value="&lt;div style=&quot;font-family: Consolas, &amp;quot;Courier New&amp;quot;, monospace; font-size: 14px; line-height: 19px; white-space: pre;&quot;&gt;&lt;div style=&quot;line-height: 19px;&quot;&gt;&lt;div style=&quot;line-height: 19px;&quot;&gt;&lt;div style=&quot;line-height: 19px;&quot;&gt;&lt;span style=&quot;&quot;&gt;input&lt;/span&gt; ≥ &lt;span style=&quot;&quot;&gt;random_Num&lt;/span&gt;&lt;/div&gt;&lt;/div&gt;&lt;/div&gt;&lt;/div&gt;" style="rhombus;whiteSpace=wrap;html=1;labelBackgroundColor=none;fontColor=default;" parent="1" vertex="1">
          <mxGeometry x="1990" y="1540" width="245" height="160" as="geometry" />
        </mxCell>
        <mxCell id="Y-2nz7yPnQ106VopUXDH-32" style="edgeStyle=orthogonalEdgeStyle;rounded=0;orthogonalLoop=1;jettySize=auto;html=1;entryX=0.5;entryY=0;entryDx=0;entryDy=0;" edge="1" parent="1" source="_Ku0AoMt5sqPNa0hzZ_X-22" target="_Ku0AoMt5sqPNa0hzZ_X-27">
          <mxGeometry relative="1" as="geometry" />
        </mxCell>
        <mxCell id="Y-2nz7yPnQ106VopUXDH-35" value="True" style="edgeLabel;html=1;align=center;verticalAlign=middle;resizable=0;points=[];fontSize=20;" vertex="1" connectable="0" parent="Y-2nz7yPnQ106VopUXDH-32">
          <mxGeometry x="-0.053" y="-2" relative="1" as="geometry">
            <mxPoint as="offset" />
          </mxGeometry>
        </mxCell>
        <mxCell id="_Ku0AoMt5sqPNa0hzZ_X-22" value="&lt;div style=&quot;font-family: Consolas, &amp;quot;Courier New&amp;quot;, monospace; font-size: 14px; line-height: 19px; white-space: pre;&quot;&gt;&lt;div style=&quot;line-height: 19px;&quot;&gt;&lt;div style=&quot;line-height: 19px;&quot;&gt;&lt;div style=&quot;line-height: 19px;&quot;&gt;&lt;div style=&quot;line-height: 19px;&quot;&gt;&lt;span style=&quot;&quot;&gt;input&lt;/span&gt; ≤ &lt;span style=&quot;&quot;&gt;random_Num&lt;/span&gt;&lt;/div&gt;&lt;/div&gt;&lt;/div&gt;&lt;/div&gt;&lt;/div&gt;" style="rhombus;whiteSpace=wrap;html=1;labelBackgroundColor=none;fontColor=default;" parent="1" vertex="1">
          <mxGeometry x="2642.62" y="1640" width="245" height="160" as="geometry" />
        </mxCell>
        <mxCell id="Y-2nz7yPnQ106VopUXDH-38" style="edgeStyle=orthogonalEdgeStyle;rounded=0;orthogonalLoop=1;jettySize=auto;html=1;entryX=0.5;entryY=0;entryDx=0;entryDy=0;" edge="1" parent="1" source="_Ku0AoMt5sqPNa0hzZ_X-23" target="Y-2nz7yPnQ106VopUXDH-37">
          <mxGeometry relative="1" as="geometry" />
        </mxCell>
        <mxCell id="_Ku0AoMt5sqPNa0hzZ_X-23" value="&lt;div style=&quot;font-family: Consolas, &amp;quot;Courier New&amp;quot;, monospace; font-size: 14px; line-height: 19px; white-space: pre;&quot;&gt;&lt;span style=&quot;&quot;&gt;scope_Max&lt;/span&gt; &lt;span style=&quot;&quot;&gt;=&lt;/span&gt; &lt;span style=&quot;&quot;&gt;input&lt;/span&gt; &lt;span style=&quot;&quot;&gt;-&lt;/span&gt; &lt;span style=&quot;&quot;&gt;1&lt;/span&gt;&lt;/div&gt;" style="rounded=0;whiteSpace=wrap;html=1;fontColor=default;labelBackgroundColor=none;" parent="1" vertex="1">
          <mxGeometry x="2022.5" y="1940" width="180" height="60" as="geometry" />
        </mxCell>
        <mxCell id="Y-2nz7yPnQ106VopUXDH-26" style="edgeStyle=orthogonalEdgeStyle;rounded=0;orthogonalLoop=1;jettySize=auto;html=1;" edge="1" parent="1" source="_Ku0AoMt5sqPNa0hzZ_X-25" target="_Ku0AoMt5sqPNa0hzZ_X-23">
          <mxGeometry relative="1" as="geometry" />
        </mxCell>
        <mxCell id="_Ku0AoMt5sqPNa0hzZ_X-25" value="&lt;div style=&quot;font-family: Consolas, &amp;quot;Courier New&amp;quot;, monospace; font-size: 14px; line-height: 19px; white-space: pre;&quot;&gt;&lt;span style=&quot;&quot;&gt;Show &lt;/span&gt;&lt;span style=&quot;&quot;&gt;&quot;Sorry, the winning number is LOWER &amp;nbsp;than input&lt;/span&gt;&lt;span style=&quot;&quot;&gt;. &amp;nbsp;(Score = score&lt;/span&gt;&lt;span style=&quot;&quot;&gt;)&lt;/span&gt;&lt;span style=&quot;&quot;&gt;&quot; + &lt;/span&gt;&lt;span style=&quot;&quot;&gt;input&lt;/span&gt;&lt;span style=&quot;&quot;&gt;&lt;font&gt; +&lt;/font&gt;&lt;/span&gt;&lt;span style=&quot;&quot;&gt;score&lt;/span&gt;&lt;/div&gt;" style="shape=parallelogram;perimeter=parallelogramPerimeter;whiteSpace=wrap;html=1;fixedSize=1;fontColor=default;labelBackgroundColor=none;" parent="1" vertex="1">
          <mxGeometry x="1737.5" y="1830" width="750" height="60" as="geometry" />
        </mxCell>
        <mxCell id="Y-2nz7yPnQ106VopUXDH-25" style="edgeStyle=orthogonalEdgeStyle;rounded=0;orthogonalLoop=1;jettySize=auto;html=1;entryX=0.5;entryY=0;entryDx=0;entryDy=0;" edge="1" parent="1" source="_Ku0AoMt5sqPNa0hzZ_X-26" target="_Ku0AoMt5sqPNa0hzZ_X-25">
          <mxGeometry relative="1" as="geometry" />
        </mxCell>
        <mxCell id="_Ku0AoMt5sqPNa0hzZ_X-26" value="&lt;div style=&quot;font-family: Consolas, &amp;quot;Courier New&amp;quot;, monospace; font-size: 14px; line-height: 19px; white-space: pre;&quot;&gt;&lt;div style=&quot;line-height: 19px;&quot;&gt;&lt;span style=&quot;&quot;&gt;score&lt;/span&gt; &lt;span style=&quot;font-family: Helvetica; font-size: 12px; white-space: normal; background-color: transparent; color: light-dark(rgb(0, 0, 0), rgb(255, 255, 255));&quot;&gt;← score&amp;nbsp; -&amp;nbsp;&lt;/span&gt;&lt;span style=&quot;background-color: transparent; color: light-dark(rgb(0, 0, 0), rgb(255, 255, 255));&quot;&gt;10&lt;/span&gt;&lt;/div&gt;&lt;/div&gt;" style="rounded=0;whiteSpace=wrap;html=1;fontColor=default;labelBackgroundColor=none;" parent="1" vertex="1">
          <mxGeometry x="2042.38" y="1740" width="140.25" height="60" as="geometry" />
        </mxCell>
        <mxCell id="Y-2nz7yPnQ106VopUXDH-33" style="edgeStyle=orthogonalEdgeStyle;rounded=0;orthogonalLoop=1;jettySize=auto;html=1;entryX=0.5;entryY=0;entryDx=0;entryDy=0;" edge="1" parent="1" source="_Ku0AoMt5sqPNa0hzZ_X-27" target="_Ku0AoMt5sqPNa0hzZ_X-28">
          <mxGeometry relative="1" as="geometry" />
        </mxCell>
        <mxCell id="_Ku0AoMt5sqPNa0hzZ_X-27" value="&lt;div style=&quot;font-family: Consolas, &amp;quot;Courier New&amp;quot;, monospace; font-size: 14px; line-height: 19px; white-space: pre;&quot;&gt;&lt;div style=&quot;line-height: 19px;&quot;&gt;&lt;span style=&quot;&quot;&gt;score&lt;/span&gt; &lt;span style=&quot;font-family: Helvetica; font-size: 12px; white-space: normal; background-color: transparent; color: light-dark(rgb(0, 0, 0), rgb(255, 255, 255));&quot;&gt;← score&amp;nbsp; -&amp;nbsp;&lt;/span&gt;&lt;span style=&quot;background-color: transparent; color: light-dark(rgb(0, 0, 0), rgb(255, 255, 255));&quot;&gt;10&lt;/span&gt;&lt;/div&gt;&lt;/div&gt;" style="rounded=0;whiteSpace=wrap;html=1;fontColor=default;labelBackgroundColor=none;" parent="1" vertex="1">
          <mxGeometry x="2695" y="1870" width="140.25" height="60" as="geometry" />
        </mxCell>
        <mxCell id="Y-2nz7yPnQ106VopUXDH-34" style="edgeStyle=orthogonalEdgeStyle;rounded=0;orthogonalLoop=1;jettySize=auto;html=1;entryX=0.5;entryY=0;entryDx=0;entryDy=0;" edge="1" parent="1" source="_Ku0AoMt5sqPNa0hzZ_X-28" target="_Ku0AoMt5sqPNa0hzZ_X-29">
          <mxGeometry relative="1" as="geometry" />
        </mxCell>
        <mxCell id="_Ku0AoMt5sqPNa0hzZ_X-28" value="&lt;div style=&quot;font-family: Consolas, &amp;quot;Courier New&amp;quot;, monospace; font-size: 14px; line-height: 19px; white-space: pre;&quot;&gt;&lt;span style=&quot;&quot;&gt;Show &lt;/span&gt;&lt;span style=&quot;&quot;&gt;&quot;Sorry, the winning number is &lt;/span&gt;&lt;span style=&quot;&quot;&gt;HIGHER&lt;/span&gt;&lt;span style=&quot;&quot;&gt; &amp;nbsp;than input&lt;/span&gt;&lt;span style=&quot;&quot;&gt;. &amp;nbsp;(Score = score&lt;/span&gt;&lt;span style=&quot;&quot;&gt;)&lt;/span&gt;&lt;span style=&quot;&quot;&gt;&quot; + &lt;/span&gt;&lt;span style=&quot;&quot;&gt;input&lt;/span&gt;&lt;span style=&quot;&quot;&gt; +&lt;/span&gt;&lt;span style=&quot;&quot;&gt;score&lt;/span&gt;&lt;br&gt;&lt;/div&gt;" style="shape=parallelogram;perimeter=parallelogramPerimeter;whiteSpace=wrap;html=1;fixedSize=1;fontColor=default;labelBackgroundColor=none;" parent="1" vertex="1">
          <mxGeometry x="2390.12" y="1970" width="750" height="60" as="geometry" />
        </mxCell>
        <mxCell id="Y-2nz7yPnQ106VopUXDH-39" style="edgeStyle=orthogonalEdgeStyle;rounded=0;orthogonalLoop=1;jettySize=auto;html=1;entryX=1;entryY=0.5;entryDx=0;entryDy=0;" edge="1" parent="1" source="_Ku0AoMt5sqPNa0hzZ_X-29" target="Y-2nz7yPnQ106VopUXDH-37">
          <mxGeometry relative="1" as="geometry">
            <Array as="points">
              <mxPoint x="2762.5" y="2270" />
            </Array>
          </mxGeometry>
        </mxCell>
        <mxCell id="_Ku0AoMt5sqPNa0hzZ_X-29" value="&lt;div style=&quot;font-family: Consolas, &amp;quot;Courier New&amp;quot;, monospace; font-size: 14px; line-height: 19px; white-space: pre;&quot;&gt;&lt;span style=&quot;&quot;&gt;scope_Max&lt;/span&gt; &lt;span style=&quot;&quot;&gt;=&lt;/span&gt; &lt;span style=&quot;&quot;&gt;input&lt;/span&gt; + &lt;span style=&quot;&quot;&gt;1&lt;/span&gt;&lt;/div&gt;" style="rounded=0;whiteSpace=wrap;html=1;fontColor=default;labelBackgroundColor=none;" parent="1" vertex="1">
          <mxGeometry x="2675.12" y="2070" width="180" height="60" as="geometry" />
        </mxCell>
        <mxCell id="Y-2nz7yPnQ106VopUXDH-53" style="edgeStyle=orthogonalEdgeStyle;rounded=0;orthogonalLoop=1;jettySize=auto;html=1;entryX=0.5;entryY=0;entryDx=0;entryDy=0;" edge="1" parent="1" source="_Ku0AoMt5sqPNa0hzZ_X-30" target="_Ku0AoMt5sqPNa0hzZ_X-31">
          <mxGeometry relative="1" as="geometry" />
        </mxCell>
        <mxCell id="Y-2nz7yPnQ106VopUXDH-56" style="edgeStyle=orthogonalEdgeStyle;rounded=0;orthogonalLoop=1;jettySize=auto;html=1;fillColor=#a20025;strokeColor=#6F0000;entryX=1;entryY=0.5;entryDx=0;entryDy=0;" edge="1" parent="1" source="_Ku0AoMt5sqPNa0hzZ_X-30" target="_Ku0AoMt5sqPNa0hzZ_X-1">
          <mxGeometry relative="1" as="geometry">
            <mxPoint x="770" y="2050" as="targetPoint" />
            <Array as="points">
              <mxPoint x="780" y="1710" />
              <mxPoint x="780" y="2195" />
            </Array>
          </mxGeometry>
        </mxCell>
        <mxCell id="_Ku0AoMt5sqPNa0hzZ_X-30" value="&lt;div style=&quot;font-family: Consolas, &amp;quot;Courier New&amp;quot;, monospace; font-size: 14px; line-height: 19px; white-space: pre;&quot;&gt;&lt;div style=&quot;line-height: 19px;&quot;&gt;&lt;div style=&quot;line-height: 19px;&quot;&gt;&lt;div style=&quot;line-height: 19px;&quot;&gt;&amp;nbsp;&lt;span style=&quot;&quot;&gt;score&lt;/span&gt; &lt;span style=&quot;&quot;&gt;==&lt;/span&gt; &lt;span style=&quot;&quot;&gt;0&lt;/span&gt; &lt;/div&gt;&lt;/div&gt;&lt;/div&gt;&lt;/div&gt;" style="rhombus;whiteSpace=wrap;html=1;labelBackgroundColor=none;fontColor=default;" parent="1" vertex="1">
          <mxGeometry x="301.99" y="1630" width="245" height="160" as="geometry" />
        </mxCell>
        <mxCell id="Y-2nz7yPnQ106VopUXDH-54" style="edgeStyle=orthogonalEdgeStyle;rounded=0;orthogonalLoop=1;jettySize=auto;html=1;" edge="1" parent="1" source="_Ku0AoMt5sqPNa0hzZ_X-31" target="_Ku0AoMt5sqPNa0hzZ_X-32">
          <mxGeometry relative="1" as="geometry" />
        </mxCell>
        <mxCell id="_Ku0AoMt5sqPNa0hzZ_X-31" value="&lt;div style=&quot;font-family: Consolas, &amp;quot;Courier New&amp;quot;, monospace; font-size: 14px; line-height: 19px; white-space: pre;&quot;&gt;&lt;div style=&quot;line-height: 19px;&quot;&gt;&lt;span style=&quot;&quot;&gt;Game over! Score = &lt;/span&gt;&lt;span style=&quot;&quot;&gt;&lt;font&gt;score&lt;/font&gt;&lt;/span&gt;&lt;span style=&quot;&quot;&gt; &lt;/span&gt;&lt;span style=&quot;&quot;&gt;\n&lt;/span&gt;&lt;span style=&quot;&quot;&gt;&quot;&lt;/span&gt;&lt;span style=&quot;&quot;&gt;&lt;font&gt; + &lt;/font&gt;&lt;/span&gt;&lt;span style=&quot;&quot;&gt;score&lt;/span&gt;&lt;/div&gt;&lt;/div&gt;" style="shape=parallelogram;perimeter=parallelogramPerimeter;whiteSpace=wrap;html=1;fixedSize=1;fontColor=default;labelBackgroundColor=none;" parent="1" vertex="1">
          <mxGeometry x="169.24" y="1850" width="510.5" height="60" as="geometry" />
        </mxCell>
        <mxCell id="Y-2nz7yPnQ106VopUXDH-55" style="edgeStyle=orthogonalEdgeStyle;rounded=0;orthogonalLoop=1;jettySize=auto;html=1;fillColor=#60a917;strokeColor=#2D7600;entryX=0;entryY=0.5;entryDx=0;entryDy=0;" edge="1" parent="1" source="_Ku0AoMt5sqPNa0hzZ_X-32" target="_Ku0AoMt5sqPNa0hzZ_X-14">
          <mxGeometry relative="1" as="geometry">
            <mxPoint x="100" y="190.6666056315104" as="targetPoint" />
            <Array as="points">
              <mxPoint x="20" y="1990" />
              <mxPoint x="20" y="155" />
            </Array>
          </mxGeometry>
        </mxCell>
        <mxCell id="_Ku0AoMt5sqPNa0hzZ_X-32" value="Break Loop" style="rounded=0;whiteSpace=wrap;html=1;" parent="1" vertex="1">
          <mxGeometry x="354.3699999999999" y="1960" width="140.25" height="60" as="geometry" />
        </mxCell>
        <mxCell id="Y-2nz7yPnQ106VopUXDH-58" style="edgeStyle=orthogonalEdgeStyle;rounded=0;orthogonalLoop=1;jettySize=auto;html=1;entryX=0.5;entryY=0;entryDx=0;entryDy=0;" edge="1" parent="1" source="_Ku0AoMt5sqPNa0hzZ_X-33" target="Y-2nz7yPnQ106VopUXDH-3">
          <mxGeometry relative="1" as="geometry">
            <mxPoint x="-247.5" y="1070" as="targetPoint" />
            <Array as="points">
              <mxPoint x="-247" y="2290" />
              <mxPoint x="425" y="2290" />
            </Array>
          </mxGeometry>
        </mxCell>
        <mxCell id="_Ku0AoMt5sqPNa0hzZ_X-33" value="Show&amp;nbsp;&lt;span style=&quot;font-family: Consolas, &amp;quot;Courier New&amp;quot;, monospace; font-size: 14px; white-space: pre;&quot;&gt;&quot;See you again.&lt;/span&gt;&lt;span style=&quot;font-family: Consolas, &amp;quot;Courier New&amp;quot;, monospace; font-size: 14px; white-space: pre;&quot;&gt;&quot;&lt;/span&gt;" style="shape=parallelogram;perimeter=parallelogramPerimeter;whiteSpace=wrap;html=1;fixedSize=1;fontColor=default;labelBackgroundColor=none;" parent="1" vertex="1">
          <mxGeometry x="-402.5" y="900" width="310" height="60" as="geometry" />
        </mxCell>
        <mxCell id="Y-2nz7yPnQ106VopUXDH-65" style="edgeStyle=orthogonalEdgeStyle;rounded=0;orthogonalLoop=1;jettySize=auto;html=1;entryX=0.5;entryY=0;entryDx=0;entryDy=0;" edge="1" parent="1" source="_Ku0AoMt5sqPNa0hzZ_X-34" target="_Ku0AoMt5sqPNa0hzZ_X-35">
          <mxGeometry relative="1" as="geometry" />
        </mxCell>
        <mxCell id="_Ku0AoMt5sqPNa0hzZ_X-34" value="Show&amp;nbsp;&lt;span style=&quot;font-family: Consolas, &amp;quot;Courier New&amp;quot;, monospace; font-size: 14px; white-space: pre;&quot;&gt;&quot;Please enter only 1 or -1.&lt;/span&gt;&lt;span style=&quot;font-family: Consolas, &amp;quot;Courier New&amp;quot;, monospace; font-size: 14px; white-space: pre;&quot;&gt;&quot;&lt;/span&gt;" style="shape=parallelogram;perimeter=parallelogramPerimeter;whiteSpace=wrap;html=1;fixedSize=1;fontColor=default;labelBackgroundColor=none;" parent="1" vertex="1">
          <mxGeometry x="-930" y="900" width="310" height="60" as="geometry" />
        </mxCell>
        <mxCell id="Y-2nz7yPnQ106VopUXDH-66" style="edgeStyle=orthogonalEdgeStyle;rounded=0;orthogonalLoop=1;jettySize=auto;html=1;" edge="1" parent="1" source="_Ku0AoMt5sqPNa0hzZ_X-35" target="_Ku0AoMt5sqPNa0hzZ_X-36">
          <mxGeometry relative="1" as="geometry" />
        </mxCell>
        <mxCell id="_Ku0AoMt5sqPNa0hzZ_X-35" value="Show&lt;span style=&quot;font-family: Consolas, &amp;quot;Courier New&amp;quot;, monospace; font-size: 14px; white-space: pre;&quot;&gt;&quot;Do you want to play game (1=play,-1=exit) : &quot;&lt;/span&gt;" style="shape=parallelogram;perimeter=parallelogramPerimeter;whiteSpace=wrap;html=1;fixedSize=1;fontColor=default;labelBackgroundColor=none;" parent="1" vertex="1">
          <mxGeometry x="-1020" y="1010" width="490" height="60" as="geometry" />
        </mxCell>
        <mxCell id="Y-2nz7yPnQ106VopUXDH-67" style="edgeStyle=orthogonalEdgeStyle;rounded=0;orthogonalLoop=1;jettySize=auto;html=1;entryX=0.5;entryY=0;entryDx=0;entryDy=0;" edge="1" parent="1" source="_Ku0AoMt5sqPNa0hzZ_X-36" target="_Ku0AoMt5sqPNa0hzZ_X-39">
          <mxGeometry relative="1" as="geometry" />
        </mxCell>
        <mxCell id="_Ku0AoMt5sqPNa0hzZ_X-36" value="Input &quot;&lt;span style=&quot;font-family: Consolas, &amp;quot;Courier New&amp;quot;, monospace; font-size: 14px; white-space: pre;&quot;&gt;PlayOrExit&lt;/span&gt;&lt;span style=&quot;&quot;&gt;&quot;&lt;/span&gt;" style="shape=parallelogram;perimeter=parallelogramPerimeter;whiteSpace=wrap;html=1;fixedSize=1;fontColor=default;labelBackgroundColor=none;" parent="1" vertex="1">
          <mxGeometry x="-996.5" y="1120" width="443" height="60" as="geometry" />
        </mxCell>
        <mxCell id="Y-2nz7yPnQ106VopUXDH-68" style="edgeStyle=orthogonalEdgeStyle;rounded=0;orthogonalLoop=1;jettySize=auto;html=1;entryX=0.5;entryY=0;entryDx=0;entryDy=0;" edge="1" parent="1" source="_Ku0AoMt5sqPNa0hzZ_X-39" target="_Ku0AoMt5sqPNa0hzZ_X-40">
          <mxGeometry relative="1" as="geometry" />
        </mxCell>
        <mxCell id="Y-2nz7yPnQ106VopUXDH-69" value="False" style="edgeLabel;html=1;align=center;verticalAlign=middle;resizable=0;points=[];fontSize=20;" vertex="1" connectable="0" parent="Y-2nz7yPnQ106VopUXDH-68">
          <mxGeometry x="0.1281" y="-3" relative="1" as="geometry">
            <mxPoint as="offset" />
          </mxGeometry>
        </mxCell>
        <mxCell id="Y-2nz7yPnQ106VopUXDH-74" style="edgeStyle=orthogonalEdgeStyle;rounded=0;orthogonalLoop=1;jettySize=auto;html=1;fillColor=#60a917;strokeColor=#2D7600;entryX=1;entryY=0.5;entryDx=0;entryDy=0;" edge="1" parent="1" source="_Ku0AoMt5sqPNa0hzZ_X-39" target="Y-2nz7yPnQ106VopUXDH-75">
          <mxGeometry relative="1" as="geometry">
            <mxPoint x="-1500" y="2000" as="targetPoint" />
            <Array as="points">
              <mxPoint x="-775" y="1830" />
            </Array>
          </mxGeometry>
        </mxCell>
        <mxCell id="_Ku0AoMt5sqPNa0hzZ_X-39" value="&lt;div style=&quot;font-family: Consolas, &amp;quot;Courier New&amp;quot;, monospace; font-size: 14px; line-height: 19px; white-space: pre;&quot;&gt;&lt;span style=&quot;&quot;&gt;PlayOrExit&lt;/span&gt; &lt;span style=&quot;&quot;&gt;=&lt;/span&gt; &lt;span style=&quot;&quot;&gt;1&lt;/span&gt;&lt;/div&gt;" style="rhombus;whiteSpace=wrap;html=1;labelBackgroundColor=none;fontColor=default;" parent="1" vertex="1">
          <mxGeometry x="-897.5" y="1250" width="245" height="160" as="geometry" />
        </mxCell>
        <mxCell id="Y-2nz7yPnQ106VopUXDH-70" style="edgeStyle=orthogonalEdgeStyle;rounded=0;orthogonalLoop=1;jettySize=auto;html=1;entryX=0.5;entryY=0;entryDx=0;entryDy=0;" edge="1" parent="1" source="_Ku0AoMt5sqPNa0hzZ_X-40" target="Y-2nz7yPnQ106VopUXDH-5">
          <mxGeometry relative="1" as="geometry" />
        </mxCell>
        <mxCell id="Y-2nz7yPnQ106VopUXDH-71" value="True" style="edgeLabel;html=1;align=center;verticalAlign=middle;resizable=0;points=[];fontSize=20;" vertex="1" connectable="0" parent="Y-2nz7yPnQ106VopUXDH-70">
          <mxGeometry x="-0.0362" y="-1" relative="1" as="geometry">
            <mxPoint as="offset" />
          </mxGeometry>
        </mxCell>
        <mxCell id="Y-2nz7yPnQ106VopUXDH-73" style="edgeStyle=orthogonalEdgeStyle;rounded=0;orthogonalLoop=1;jettySize=auto;html=1;entryX=0.5;entryY=0;entryDx=0;entryDy=0;" edge="1" parent="1" source="_Ku0AoMt5sqPNa0hzZ_X-40" target="Y-2nz7yPnQ106VopUXDH-6">
          <mxGeometry relative="1" as="geometry" />
        </mxCell>
        <mxCell id="_Ku0AoMt5sqPNa0hzZ_X-40" value="&lt;div style=&quot;font-family: Consolas, &amp;quot;Courier New&amp;quot;, monospace; font-size: 14px; line-height: 19px; white-space: pre;&quot;&gt;&lt;div style=&quot;line-height: 19px;&quot;&gt;&lt;span style=&quot;&quot;&gt;PlayOrExit&lt;/span&gt; &lt;span style=&quot;&quot;&gt;=&lt;/span&gt; &lt;span style=&quot;&quot;&gt;-&lt;/span&gt;&lt;span style=&quot;&quot;&gt;1&lt;/span&gt;&lt;/div&gt;&lt;/div&gt;" style="rhombus;whiteSpace=wrap;html=1;labelBackgroundColor=none;fontColor=default;" parent="1" vertex="1">
          <mxGeometry x="-1330" y="1350" width="245" height="160" as="geometry" />
        </mxCell>
        <mxCell id="Y-2nz7yPnQ106VopUXDH-4" style="edgeStyle=orthogonalEdgeStyle;rounded=0;orthogonalLoop=1;jettySize=auto;html=1;entryX=0.5;entryY=0;entryDx=0;entryDy=0;" edge="1" parent="1" source="Y-2nz7yPnQ106VopUXDH-3" target="HzeqfnqRbjBhCnMXEQu9-3">
          <mxGeometry relative="1" as="geometry" />
        </mxCell>
        <mxCell id="Y-2nz7yPnQ106VopUXDH-3" value="" style="ellipse;whiteSpace=wrap;html=1;aspect=fixed;" vertex="1" parent="1">
          <mxGeometry x="400.49" y="2330" width="49.5" height="49.5" as="geometry" />
        </mxCell>
        <mxCell id="Y-2nz7yPnQ106VopUXDH-72" style="edgeStyle=orthogonalEdgeStyle;rounded=0;orthogonalLoop=1;jettySize=auto;html=1;entryX=0;entryY=0.5;entryDx=0;entryDy=0;" edge="1" parent="1" source="Y-2nz7yPnQ106VopUXDH-5" target="Y-2nz7yPnQ106VopUXDH-3">
          <mxGeometry relative="1" as="geometry">
            <mxPoint x="-580" y="2474" as="targetPoint" />
            <Array as="points">
              <mxPoint x="-1200" y="2355" />
            </Array>
          </mxGeometry>
        </mxCell>
        <mxCell id="Y-2nz7yPnQ106VopUXDH-5" value="Show&amp;nbsp;&lt;span style=&quot;font-family: Consolas, &amp;quot;Courier New&amp;quot;, monospace; font-size: 14px; white-space: pre;&quot;&gt;&quot;See you again.&lt;/span&gt;&lt;span style=&quot;font-family: Consolas, &amp;quot;Courier New&amp;quot;, monospace; font-size: 14px; white-space: pre;&quot;&gt;&quot;&lt;/span&gt;" style="shape=parallelogram;perimeter=parallelogramPerimeter;whiteSpace=wrap;html=1;fixedSize=1;fontColor=default;labelBackgroundColor=none;" vertex="1" parent="1">
          <mxGeometry x="-1362.5" y="1570" width="310" height="60" as="geometry" />
        </mxCell>
        <mxCell id="Y-2nz7yPnQ106VopUXDH-76" style="edgeStyle=orthogonalEdgeStyle;rounded=0;orthogonalLoop=1;jettySize=auto;html=1;entryX=0.5;entryY=0;entryDx=0;entryDy=0;fillColor=#60a917;strokeColor=#2D7600;" edge="1" parent="1" source="Y-2nz7yPnQ106VopUXDH-6" target="Y-2nz7yPnQ106VopUXDH-75">
          <mxGeometry relative="1" as="geometry" />
        </mxCell>
        <mxCell id="Y-2nz7yPnQ106VopUXDH-6" value="Show&amp;nbsp;&lt;span style=&quot;font-family: Consolas, &amp;quot;Courier New&amp;quot;, monospace; font-size: 14px; white-space: pre;&quot;&gt;&quot;Please enter only 1 or -1.(เว้นบรรทัด2บรรทัด)&lt;/span&gt;&lt;div&gt;&lt;span style=&quot;font-family: Consolas, &amp;quot;Courier New&amp;quot;, monospace; font-size: 14px; white-space: pre;&quot;&gt;Retrun to the game agin!&lt;/span&gt;&lt;span style=&quot;font-family: Consolas, &amp;quot;Courier New&amp;quot;, monospace; font-size: 14px; white-space: pre;&quot;&gt;(เว้นบรรทัด2บรรทัด)&lt;/span&gt;&lt;span style=&quot;font-family: Consolas, &amp;quot;Courier New&amp;quot;, monospace; font-size: 14px; white-space: pre;&quot;&gt;&quot;&lt;/span&gt;&lt;/div&gt;" style="shape=parallelogram;perimeter=parallelogramPerimeter;whiteSpace=wrap;html=1;fixedSize=1;fontColor=default;labelBackgroundColor=none;" vertex="1" parent="1">
          <mxGeometry x="-2220" y="1570" width="770" height="60" as="geometry" />
        </mxCell>
        <mxCell id="Y-2nz7yPnQ106VopUXDH-49" style="edgeStyle=orthogonalEdgeStyle;rounded=0;orthogonalLoop=1;jettySize=auto;html=1;entryX=1;entryY=0.5;entryDx=0;entryDy=0;" edge="1" parent="1" source="Y-2nz7yPnQ106VopUXDH-37" target="Y-2nz7yPnQ106VopUXDH-43">
          <mxGeometry relative="1" as="geometry" />
        </mxCell>
        <mxCell id="Y-2nz7yPnQ106VopUXDH-37" value="" style="ellipse;whiteSpace=wrap;html=1;aspect=fixed;" vertex="1" parent="1">
          <mxGeometry x="2092.5" y="2250" width="40" height="40" as="geometry" />
        </mxCell>
        <mxCell id="Y-2nz7yPnQ106VopUXDH-48" style="edgeStyle=orthogonalEdgeStyle;rounded=0;orthogonalLoop=1;jettySize=auto;html=1;entryX=1;entryY=0.5;entryDx=0;entryDy=0;" edge="1" parent="1" source="Y-2nz7yPnQ106VopUXDH-43" target="Y-2nz7yPnQ106VopUXDH-46">
          <mxGeometry relative="1" as="geometry">
            <Array as="points">
              <mxPoint x="860" y="2270" />
              <mxPoint x="860" y="1560" />
            </Array>
          </mxGeometry>
        </mxCell>
        <mxCell id="Y-2nz7yPnQ106VopUXDH-43" value="" style="ellipse;whiteSpace=wrap;html=1;aspect=fixed;" vertex="1" parent="1">
          <mxGeometry x="1035" y="2250" width="40" height="40" as="geometry" />
        </mxCell>
        <mxCell id="Y-2nz7yPnQ106VopUXDH-51" style="edgeStyle=orthogonalEdgeStyle;rounded=0;orthogonalLoop=1;jettySize=auto;html=1;" edge="1" parent="1" source="Y-2nz7yPnQ106VopUXDH-46" target="_Ku0AoMt5sqPNa0hzZ_X-30">
          <mxGeometry relative="1" as="geometry" />
        </mxCell>
        <mxCell id="Y-2nz7yPnQ106VopUXDH-46" value="" style="ellipse;whiteSpace=wrap;html=1;aspect=fixed;" vertex="1" parent="1">
          <mxGeometry x="405.25" y="1540" width="40" height="40" as="geometry" />
        </mxCell>
        <mxCell id="Y-2nz7yPnQ106VopUXDH-77" style="edgeStyle=orthogonalEdgeStyle;rounded=0;orthogonalLoop=1;jettySize=auto;html=1;fillColor=#60a917;strokeColor=#2D7600;entryX=0;entryY=0;entryDx=0;entryDy=0;" edge="1" parent="1" source="Y-2nz7yPnQ106VopUXDH-75" target="_Ku0AoMt5sqPNa0hzZ_X-14">
          <mxGeometry relative="1" as="geometry">
            <mxPoint x="-50" y="126.00006103515625" as="targetPoint" />
            <Array as="points">
              <mxPoint x="-2370" y="1830" />
              <mxPoint x="-2370" y="144" />
            </Array>
          </mxGeometry>
        </mxCell>
        <mxCell id="Y-2nz7yPnQ106VopUXDH-75" value="" style="ellipse;whiteSpace=wrap;html=1;aspect=fixed;" vertex="1" parent="1">
          <mxGeometry x="-1855" y="1810" width="40" height="40" as="geometry" />
        </mxCell>
      </root>
    </mxGraphModel>
  </diagram>
</mxfile>
